<svg width="26" height="26" viewBox="0 0 26 26" fill="none" xmlns="http://www.w3.org/2000/svg">
<path d="M20.5833 8.66666V6.49999H18.4166V4.33332H20.5833V2.16666H22.7499V4.33332H24.9166V6.49999H22.7499V8.66666H20.5833ZM3.24992 23.8333C2.65409 23.8333 2.14384 23.621 1.71917 23.1963C1.2945 22.7717 1.08253 22.2618 1.08325 21.6667V8.66666C1.08325 8.07082 1.29559 7.56057 1.72025 7.13591C2.14492 6.71124 2.65481 6.49927 3.24992 6.49999H6.66242L8.66659 4.33332H15.1666V6.49999H9.6145L7.63742 8.66666H3.24992V21.6667H20.5833V11.9167H22.7499V21.6667C22.7499 22.2625 22.5376 22.7727 22.1129 23.1974C21.6883 23.6221 21.1784 23.834 20.5833 23.8333H3.24992ZM11.9166 20.0417C13.2708 20.0417 14.422 19.5675 15.3703 18.6192C16.3185 17.671 16.7923 16.5201 16.7916 15.1667C16.7916 13.8125 16.3174 12.6613 15.3692 11.713C14.4209 10.7647 13.27 10.2909 11.9166 10.2917C10.5624 10.2917 9.4112 10.7658 8.46292 11.7141C7.51464 12.6623 7.04087 13.8132 7.04159 15.1667C7.04159 16.5208 7.51573 17.672 8.464 18.6203C9.41228 19.5686 10.5631 20.0424 11.9166 20.0417ZM11.9166 17.875C11.1583 17.875 10.5173 17.6132 9.99367 17.0896C9.47006 16.566 9.20825 15.925 9.20825 15.1667C9.20825 14.4083 9.47006 13.7674 9.99367 13.2437C10.5173 12.7201 11.1583 12.4583 11.9166 12.4583C12.6749 12.4583 13.3159 12.7201 13.8395 13.2437C14.3631 13.7674 14.6249 14.4083 14.6249 15.1667C14.6249 15.925 14.3631 16.566 13.8395 17.0896C13.3159 17.6132 12.6749 17.875 11.9166 17.875Z" fill="#1FAA59"/>
</svg>
