<svg width="30" height="30" viewBox="0 0 30 30" fill="none" xmlns="http://www.w3.org/2000/svg">
<path d="M15.9375 4.92501C17.1875 4.02501 18.6375 3.57501 20.275 3.57501C21.175 3.57501 22.1625 3.81251 23.2375 4.31251C24.3125 4.80001 25.1625 5.37501 25.7875 6.03751C27.075 7.63751 27.6125 9.50001 27.425 11.625C27.225 13.75 26.525 15.4125 25.3125 16.5875L15.825 26.075C15.5875 26.3125 15.2875 26.425 14.9375 26.425C14.5875 26.425 14.3 26.3125 14.0625 26.075C13.9471 25.9611 13.8564 25.8246 13.7961 25.6741C13.7359 25.5235 13.7074 25.3621 13.7125 25.2C13.7125 24.85 13.825 24.55 14.0625 24.3125L19.8 18.575C20.1125 18.3 20.1125 18.0125 19.8 17.7C19.4875 17.3875 19.2 17.3875 18.925 17.7L13.1875 23.4375C13.0718 23.554 12.9332 23.6453 12.7804 23.7056C12.6277 23.7658 12.4641 23.7937 12.3 23.7875C11.95 23.7875 11.6625 23.675 11.425 23.4375C11.3096 23.3236 11.2189 23.1871 11.1586 23.0366C11.0984 22.886 11.0699 22.7246 11.075 22.5625C11.075 22.2125 11.1875 21.9125 11.425 21.675L17.1625 15.9375C17.5 15.625 17.5 15.3125 17.1625 15C16.875 14.6875 16.6 14.6875 16.2875 15L10.55 20.8C10.433 20.9147 10.2942 21.0048 10.1417 21.065C9.98928 21.1251 9.82632 21.154 9.6625 21.15C9.3125 21.15 9.0125 21.0375 8.75 20.8C8.5 20.5625 8.375 20.275 8.375 19.925C8.375 19.575 8.5125 19.2625 8.7875 18.9875L14.5375 13.2375C14.85 12.925 14.85 12.6375 14.5375 12.3625C14.225 12.0875 13.925 12.0875 13.65 12.3625L7.85 18.125C7.575 18.375 7.2875 18.5125 6.975 18.5125C6.625 18.5125 6.325 18.3875 6.1 18.125C5.8625 17.875 5.7375 17.575 5.7375 17.225C5.7375 16.875 5.8625 16.5875 6.1 16.35C9.925 12.5 12.2875 10.175 13.1875 9.31251L17.6375 13.7125C18.125 14.175 18.6875 14.4125 19.375 14.4125C20.25 14.4125 20.9375 14.0625 21.45 13.3625C21.8 12.85 21.925 12.2875 21.825 11.6625C21.725 11.0375 21.4625 10.5125 21.0375 10.075L15.9375 4.92501ZM18.5125 12.8375L13.1875 7.50001L4.3375 16.35C3.2875 15.2875 2.6875 13.6625 2.55 11.45C2.4125 9.25001 3.0125 7.33751 4.3375 5.73751C5.825 4.26251 7.6 3.51251 9.6625 3.51251C11.7375 3.51251 13.5 4.26251 14.9375 5.73751L20.275 11.075C20.5125 11.3125 20.625 11.6 20.625 11.95C20.625 12.3 20.5125 12.6 20.275 12.8375C20.0375 13.0625 19.75 13.1875 19.375 13.1875C19.0375 13.1875 18.75 13.0625 18.5125 12.8375Z" fill="#1FAA59"/>
</svg>
