<svg width="9" height="10" viewBox="0 0 9 10" fill="none" xmlns="http://www.w3.org/2000/svg">
    <path fill-rule="evenodd" clip-rule="evenodd" d="M4.437 9.99C4.47937 10.0033 4.52156 10.0033 4.56356 9.99C5.10975 9.825 9 8.509 9 4.62648V1.15197C9.00012 1.10729 8.9834 1.06386 8.95251 1.0286C8.92161 0.99335 8.87833 0.968309 8.82956 0.957473L4.55456 0.00596974C4.51874 -0.00198991 4.48126 -0.00198991 4.44544 0.00596974L0.170438 0.957473C0.121668 0.968309 0.0783852 0.99335 0.047494 1.0286C0.0166027 1.06386 -0.00011741 1.10729 6.20633e-07 1.15197V4.62598C6.20633e-07 8.4695 3.89194 9.8195 4.437 9.99ZM7.20731 3.28998C7.25023 3.23653 7.28088 3.17609 7.29752 3.11211C7.31416 3.04814 7.31647 2.98187 7.3043 2.9171C7.29213 2.85233 7.26572 2.79033 7.22659 2.73463C7.18747 2.67893 7.13638 2.63063 7.07625 2.59248C7.01612 2.55433 6.94813 2.52708 6.87615 2.51229C6.80418 2.4975 6.72963 2.49545 6.65676 2.50627C6.5839 2.51709 6.51414 2.54056 6.45148 2.57534C6.38882 2.61012 6.33448 2.65553 6.29156 2.70898L3.86494 5.72899L2.64713 4.64598C2.54104 4.5549 2.39895 4.50451 2.25146 4.50565C2.10398 4.50679 1.96289 4.55937 1.8586 4.65207C1.75431 4.74478 1.69515 4.87019 1.69387 5.00128C1.69259 5.13238 1.74929 5.25868 1.85175 5.35299L3.53925 6.85299C3.59702 6.90426 3.66665 6.94374 3.7433 6.96869C3.81996 6.99363 3.90181 7.00345 3.98316 6.99746C4.06451 6.99146 4.14342 6.9698 4.21441 6.93397C4.2854 6.89815 4.34677 6.84902 4.39425 6.78999L7.20731 3.28998Z" fill="#1FAA59"/>
</svg>
