<svg width="25" height="24" viewBox="0 0 25 24" fill="none" xmlns="http://www.w3.org/2000/svg">
<path fill-rule="evenodd" clip-rule="evenodd" d="M16.3656 10.545C16.9322 9.14528 15.5563 7.74555 14.1803 8.32191L11.6196 9.39452C10.971 9.66623 10.4559 10.1902 10.1888 10.8501L9.13437 13.455C8.56781 14.8547 9.94375 16.2544 11.3197 15.6781L13.8804 14.6055C14.529 14.3338 15.0441 13.8098 15.3112 13.1499L16.3656 10.545ZM14.7266 9.67164C14.9232 9.5893 15.1198 9.78926 15.0388 9.98922L13.9844 12.5941C13.863 12.8941 13.6289 13.1323 13.334 13.2558L10.7734 14.3284C10.5768 14.4107 10.3802 14.2107 10.4612 14.0108L11.5156 11.4059C11.637 11.1059 11.8711 10.8677 12.166 10.7442L14.7266 9.67164Z" fill="#5E5F60"/>
<path fill-rule="evenodd" clip-rule="evenodd" d="M15.6836 2.06995C14.914 1.99999 13.9735 1.99999 12.7837 2H12.7163C11.5265 1.99999 10.586 1.99999 9.81637 2.06995C9.02579 2.14181 8.36455 2.29074 7.73959 2.61687C7.57771 2.70136 7.42004 2.79396 7.26717 2.89434C6.67705 3.28184 6.21964 3.78993 5.76318 4.45049C5.3188 5.09356 4.84856 5.9221 4.25366 6.97032L4.21997 7.02968C3.62506 8.07789 3.15482 8.90643 2.82955 9.61946C2.49544 10.3519 2.2916 11.0089 2.25677 11.7225C2.24774 11.9074 2.24774 12.0926 2.25677 12.2775C2.2916 12.9911 2.49544 13.6481 2.82955 14.3805C3.15481 15.0936 3.62505 15.9221 4.21995 16.9703L4.25364 17.0297C4.84855 18.0779 5.31879 18.9064 5.76318 19.5495C6.21964 20.2101 6.67705 20.7182 7.26717 21.1057C7.42004 21.206 7.5777 21.2986 7.73959 21.3831C8.36454 21.7093 9.02579 21.8582 9.81637 21.9301C10.586 22 11.5265 22 12.7163 22H12.7837C13.9735 22 14.914 22 15.6836 21.9301C16.4742 21.8582 17.1355 21.7093 17.7604 21.3831C17.9223 21.2986 18.08 21.206 18.2328 21.1057C18.8229 20.7182 19.2804 20.2101 19.7368 19.5495C20.1812 18.9065 20.6514 18.0779 21.2463 17.0297L21.28 16.9703C21.8749 15.9221 22.3452 15.0936 22.6705 14.3805C23.0046 13.6481 23.2084 12.9911 23.2432 12.2775C23.2523 12.0926 23.2523 11.9074 23.2432 11.7225C23.2084 11.0089 23.0046 10.3519 22.6705 9.61946C22.3452 8.90643 21.8749 8.07788 21.28 7.02966L21.2463 6.97026C20.6514 5.92207 20.1812 5.09355 19.7368 4.45049C19.2804 3.78993 18.8229 3.28184 18.2328 2.89434C18.08 2.79396 17.9223 2.70136 17.7604 2.61687C17.1355 2.29074 16.4742 2.14181 15.6836 2.06995ZM8.39453 3.91562C8.79746 3.70535 9.25934 3.58607 9.94408 3.52383C10.6425 3.46034 11.5191 3.45967 12.75 3.45967C13.9809 3.45967 14.8575 3.46034 15.5559 3.52383C16.2407 3.58607 16.7025 3.70535 17.1055 3.91562C17.2251 3.97807 17.3417 4.04651 17.4546 4.1207C17.8351 4.37054 18.1676 4.71781 18.563 5.28993C18.9662 5.8735 19.4051 6.64541 20.0205 7.72984C20.636 8.81427 21.0737 9.58685 21.3689 10.2339C21.6583 10.8683 21.7877 11.3348 21.8101 11.7949C21.8168 11.9316 21.8168 12.0684 21.8101 12.2051C21.7877 12.6652 21.6583 13.1317 21.3689 13.7661C21.0737 14.4132 20.636 15.1857 20.0205 16.2702C19.4051 17.3546 18.9662 18.1265 18.563 18.7101C18.1676 19.2822 17.8351 19.6295 17.4546 19.8793C17.3417 19.9535 17.2251 20.0219 17.1055 20.0844C16.7025 20.2947 16.2407 20.4139 15.5559 20.4762C14.8575 20.5397 13.9809 20.5403 12.75 20.5403C11.5191 20.5403 10.6425 20.5397 9.94408 20.4762C9.25933 20.4139 8.79746 20.2947 8.39453 20.0844C8.27488 20.0219 8.15834 19.9535 8.04535 19.8793C7.66488 19.6295 7.3324 19.2822 6.93704 18.7101C6.53378 18.1265 6.09492 17.3546 5.47946 16.2702C4.864 15.1857 4.42628 14.4132 4.13112 13.7661C3.84173 13.1317 3.71234 12.6652 3.68989 12.2051C3.68322 12.0684 3.68322 11.9316 3.68989 11.7949C3.71234 11.3348 3.84173 10.8683 4.13112 10.2339C4.42628 9.58685 4.864 8.81427 5.47946 7.72984C6.09492 6.64541 6.53378 5.87349 6.93704 5.28993C7.3324 4.71781 7.66488 4.37054 8.04535 4.1207C8.15834 4.04651 8.27488 3.97807 8.39453 3.91562Z" fill="#5E5F60"/>
</svg>
