<svg width="20" height="21" viewBox="0 0 20 21" fill="none" xmlns="http://www.w3.org/2000/svg">
<path d="M6.86734 0.560264C4.38247 1.41141 2.26319 3.27363 1.08644 5.62141C0.675151 6.43257 0.378109 7.29513 0.201026 8.18626C-0.25025 10.4027 0.0639294 12.7619 1.08644 14.784C1.74907 16.1036 2.70304 17.2746 3.85693 18.1886C4.94799 19.0569 6.21614 19.6967 7.56425 20.0565C9.26082 20.5135 11.0716 20.5021 12.7853 20.1137C14.3334 19.7595 15.7958 19.0169 16.9611 17.943C18.1949 16.8062 19.0746 15.3153 19.5431 13.7101C20.0515 11.9564 20.12 10.0885 19.8001 8.2948C16.6012 8.2948 13.4023 8.2948 10.1976 8.2948C10.1976 9.62006 10.1976 10.951 10.1976 12.2763C12.0485 12.2763 13.905 12.2763 15.7558 12.2763C15.5387 13.5502 14.7847 14.7098 13.7107 15.4295C13.0367 15.8808 12.2655 16.1778 11.4658 16.3149C10.6603 16.452 9.83206 16.4692 9.03233 16.3092C8.21546 16.1493 7.43858 15.8065 6.75881 15.3267C5.67346 14.567 4.84517 13.4473 4.42246 12.1963C3.98832 10.9225 3.9826 9.5001 4.42246 8.22625C4.72521 7.32941 5.23361 6.4954 5.90196 5.82134C6.72454 4.97592 7.79275 4.37612 8.94664 4.13049C9.93488 3.91913 10.9745 3.95912 11.9399 4.25045C12.7625 4.50179 13.5165 4.94735 14.1392 5.54144C14.7675 4.91879 15.3902 4.29043 16.0185 3.66779C16.3441 3.33076 16.6926 3.01086 17.0125 2.66241C16.0642 1.78271 14.9446 1.07438 13.7279 0.628813C11.5458 -0.188054 9.07231 -0.205191 6.86734 0.560264Z" fill="white"/>
<path d="M6.8674 0.560191C9.07237 -0.205265 11.5458 -0.188127 13.7394 0.623027C14.9561 1.06859 16.07 1.77692 17.024 2.65663C16.7041 2.99937 16.3613 3.32497 16.03 3.662C15.4017 4.28465 14.779 4.91301 14.1507 5.53565C13.528 4.94157 12.774 4.49029 11.9514 4.24466C10.986 3.95333 9.94636 3.91334 8.95812 4.1247C7.80423 4.37033 6.73601 4.97584 5.91344 5.81556C5.24509 6.48961 4.73669 7.32362 4.43394 8.22046C3.32003 7.35789 2.20612 6.48961 1.09221 5.62705C2.26324 3.27356 4.38252 1.41133 6.8674 0.560191Z" fill="#E94435"/>
<path d="M0.201026 8.18612C0.378109 7.295 0.680864 6.43243 1.08644 5.62128C2.20035 6.48384 3.31426 7.35212 4.42817 8.21469C3.98832 9.48854 3.99403 10.9109 4.42817 12.1848C3.31426 13.0473 2.20035 13.9156 1.08644 14.7782C0.0639294 12.7674 -0.25025 10.4025 0.201026 8.18612Z" fill="#F8BB15"/>
<path d="M10.2034 8.28903C13.4023 8.28903 16.6013 8.28903 19.8059 8.28903C20.1258 10.0827 20.0572 11.9507 19.5488 13.7043C19.0804 15.3095 18.2007 16.8062 16.9668 17.9372C15.8872 17.0975 14.8019 16.2578 13.7279 15.4181C14.8019 14.704 15.5559 13.5387 15.773 12.2648C13.9222 12.2648 12.0656 12.2648 10.2148 12.2648C10.1977 10.9453 10.2034 9.62001 10.2034 8.28903Z" fill="#547DBE"/>
<path d="M1.08643 14.784C2.20034 13.9214 3.31424 13.0531 4.42815 12.1906C4.85087 13.4473 5.67916 14.5612 6.76451 15.3209C7.44428 15.8008 8.22116 16.1378 9.03802 16.3034C9.83775 16.4634 10.6718 16.4463 11.4715 16.3092C12.2712 16.1721 13.0424 15.875 13.7164 15.4237C14.7961 16.2635 15.8814 17.1032 16.9553 17.9429C15.79 19.0225 14.3277 19.7594 12.7796 20.1136C11.0716 20.502 9.26081 20.5135 7.55852 20.0565C6.21041 19.6966 4.94227 19.0568 3.85121 18.1885C2.70302 17.2688 1.74906 16.0978 1.08643 14.784Z" fill="#34A751"/>
</svg>
