<svg width="21" height="20" viewBox="0 0 21 20" fill="none" xmlns="http://www.w3.org/2000/svg">
<g clip-path="url(#clip0_26_807)">
<path d="M15.5796 3.10814L4.20998 9.41705L8.01685 10.2072C9.1295 10.4376 10.087 11.0708 10.679 11.9677L12.7076 15.0345L15.5796 3.10814ZM17.0261 3.35193L14.1543 15.2796C13.9729 16.0342 13.1781 16.5349 12.3792 16.4C12.1845 16.3672 12.0003 16.2972 11.838 16.1945C11.6758 16.0917 11.539 15.9585 11.4363 15.803L9.40677 12.735C9.01183 12.1374 8.3735 11.7157 7.63188 11.5623L3.82576 10.772C3.03428 10.6077 2.56478 9.86869 2.77693 9.12038C2.82919 8.9374 2.91968 8.76491 3.04321 8.61284C3.16673 8.46077 3.32084 8.33212 3.49667 8.23429L14.866 1.92402C15.1125 1.78373 15.3962 1.71272 15.6818 1.71981C15.9673 1.7269 16.2423 1.81179 16.4724 1.96391C16.7025 2.11604 16.8777 2.3287 16.9761 2.57547C17.0746 2.82224 17.0919 3.09225 17.0261 3.35193Z" fill="#1FAA59"/>
</g>
<defs>
<clipPath id="clip0_26_807">
<rect width="18.0398" height="16.6707" fill="white" transform="translate(0 2.90735) rotate(-9.27426)"/>
</clipPath>
</defs>
</svg>
