<svg width="25" height="24" viewBox="0 0 25 24" fill="none" xmlns="http://www.w3.org/2000/svg">
<path fill-rule="evenodd" clip-rule="evenodd" d="M6.81008 4.8893C4.26778 6.77703 2.99662 7.7209 2.49737 9.11512C2.45732 9.22696 2.4213 9.34027 2.38937 9.45481C1.99142 10.8827 2.47695 12.4099 3.44803 15.4643C4.4191 18.5187 4.90464 20.0459 6.0478 20.962C6.1395 21.0355 6.23381 21.1055 6.33054 21.172C7.53631 22 9.10754 22 12.25 22C15.3925 22 16.9637 22 18.1695 21.172C18.2662 21.1055 18.3605 21.0355 18.4522 20.962C19.5954 20.0459 20.0809 18.5187 21.052 15.4643C22.023 12.4099 22.5086 10.8827 22.1106 9.45481C22.0787 9.34027 22.0427 9.22696 22.0026 9.11512C21.5034 7.7209 20.2322 6.77704 17.6899 4.88931C15.1476 3.00158 13.8765 2.0577 12.4247 2.00327C12.3083 1.99891 12.1917 1.99891 12.0753 2.00327C10.6235 2.0577 9.35238 3.00157 6.81008 4.8893ZM10.3434 16.6821C9.9485 16.6821 9.62839 17.0093 9.62839 17.4129C9.62839 17.8164 9.9485 18.1436 10.3434 18.1436H14.1566C14.5515 18.1436 14.8716 17.8164 14.8716 17.4129C14.8716 17.0093 14.5515 16.6821 14.1566 16.6821H10.3434Z" fill="#00AA5B"/>
</svg>
