<svg width="22" height="22" viewBox="0 0 22 22" fill="none" xmlns="http://www.w3.org/2000/svg">
    <path d="M16.8438 0H5.15625C2.30853 0 0 2.30853 0 5.15625V16.8438C0 19.6915 2.30853 22 5.15625 22H16.8438C19.6915 22 22 19.6915 22 16.8438V5.15625C22 2.30853 19.6915 0 16.8438 0Z" fill="url(#paint0_radial_202_2090)"/>
    <path d="M16.8438 0H5.15625C2.30853 0 0 2.30853 0 5.15625V16.8438C0 19.6915 2.30853 22 5.15625 22H16.8438C19.6915 22 22 19.6915 22 16.8438V5.15625C22 2.30853 19.6915 0 16.8438 0Z" fill="url(#paint1_radial_202_2090)"/>
    <path d="M11.0005 5.07715C9.39194 5.07715 9.19002 5.0842 8.55827 5.11292C7.9277 5.14183 7.49727 5.24163 7.12068 5.38811C6.73106 5.53938 6.40061 5.74177 6.0714 6.07109C5.7419 6.40035 5.53951 6.7308 5.38776 7.12023C5.24087 7.49694 5.14095 7.92754 5.11258 8.55781C5.08432 9.18962 5.07692 9.39159 5.07692 11.0002C5.07692 12.6089 5.08403 12.8101 5.11269 13.4419C5.14172 14.0724 5.24152 14.5029 5.38788 14.8794C5.53927 15.2691 5.74167 15.5995 6.07099 15.9287C6.40013 16.2582 6.73058 16.4611 7.11991 16.6123C7.49679 16.7588 7.92728 16.8586 8.55773 16.8875C9.18955 16.9163 9.39129 16.9233 10.9998 16.9233C12.6086 16.9233 12.8099 16.9163 13.4416 16.8875C14.0722 16.8586 14.5031 16.7588 14.88 16.6123C15.2694 16.4611 15.5994 16.2582 15.9285 15.9287C16.258 15.5995 16.4603 15.2691 16.6121 14.8796C16.7577 14.5029 16.8577 14.0723 16.8873 13.442C16.9157 12.8102 16.9231 12.6089 16.9231 11.0002C16.9231 9.39159 16.9157 9.18974 16.8873 8.55793C16.8577 7.92736 16.7577 7.497 16.6121 7.12041C16.4603 6.7308 16.258 6.40035 15.9285 6.07109C15.599 5.74165 15.2695 5.53926 14.8796 5.38817C14.502 5.24163 14.0713 5.14177 13.4408 5.11292C12.809 5.0842 12.6078 5.07715 10.9987 5.07715H11.0005ZM10.4692 6.14454C10.6269 6.1443 10.8029 6.14454 11.0005 6.14454C12.5821 6.14454 12.7695 6.15022 13.394 6.17859C13.9715 6.20501 14.2849 6.3015 14.4937 6.38258C14.7702 6.48991 14.9672 6.61826 15.1744 6.82562C15.3817 7.03293 15.51 7.23034 15.6176 7.50677C15.6987 7.71526 15.7953 8.02871 15.8216 8.6062C15.85 9.23061 15.8561 9.41813 15.8561 10.9989C15.8561 12.5796 15.85 12.7672 15.8216 13.3915C15.7952 13.969 15.6987 14.2825 15.6176 14.491C15.5103 14.7674 15.3817 14.9643 15.1744 15.1715C14.9671 15.3788 14.7703 15.5071 14.4937 15.6144C14.2852 15.6959 13.9715 15.7921 13.394 15.8185C12.7696 15.8469 12.5821 15.8531 11.0005 15.8531C9.41895 15.8531 9.23148 15.8469 8.60713 15.8185C8.02963 15.7919 7.71618 15.6954 7.50722 15.6143C7.23085 15.5069 7.03337 15.3786 6.82606 15.1713C6.61876 14.964 6.49046 14.7671 6.38284 14.4905C6.30175 14.282 6.20515 13.9685 6.17885 13.3911C6.15048 12.7666 6.14479 12.5791 6.14479 10.9974C6.14479 9.41564 6.15048 9.22912 6.17885 8.60472C6.20527 8.02723 6.30175 7.71378 6.38284 7.50499C6.49022 7.22857 6.61876 7.03115 6.82612 6.82385C7.03349 6.61654 7.23085 6.48819 7.50728 6.38063C7.71606 6.29919 8.02963 6.20294 8.60713 6.1764C9.15354 6.1517 9.36529 6.1443 10.4692 6.14305V6.14454ZM14.1623 7.12799C13.7699 7.12799 13.4515 7.44606 13.4515 7.83852C13.4515 8.23092 13.7699 8.54928 14.1623 8.54928C14.5547 8.54928 14.873 8.23092 14.873 7.83852C14.873 7.44612 14.5547 7.12776 14.1623 7.12776V7.12799ZM11.0005 7.95846C9.32074 7.95846 7.95879 9.3204 7.95879 11.0002C7.95879 12.6801 9.32074 14.0413 11.0005 14.0413C12.6804 14.0413 14.0419 12.6801 14.0419 11.0002C14.0419 9.32046 12.6803 7.95846 11.0004 7.95846H11.0005ZM11.0005 9.02585C12.0909 9.02585 12.9749 9.90974 12.9749 11.0002C12.9749 12.0906 12.0909 12.9746 11.0005 12.9746C9.91015 12.9746 9.02619 12.0906 9.02619 11.0002C9.02619 9.90974 9.91009 9.02585 11.0005 9.02585Z" fill="white"/>
    <defs>
        <radialGradient id="paint0_radial_202_2090" cx="0" cy="0" r="1" gradientUnits="userSpaceOnUse" gradientTransform="translate(5.84375 23.6944) rotate(-90) scale(21.8036 20.2791)">
            <stop stop-color="#FFDD55"/>
            <stop offset="0.1" stop-color="#FFDD55"/>
            <stop offset="0.5" stop-color="#FF543E"/>
            <stop offset="1" stop-color="#C837AB"/>
        </radialGradient>
        <radialGradient id="paint1_radial_202_2090" cx="0" cy="0" r="1" gradientUnits="userSpaceOnUse" gradientTransform="translate(-3.68509 1.58477) rotate(78.681) scale(9.74634 40.1747)">
            <stop stop-color="#3771C8"/>
            <stop offset="0.128" stop-color="#3771C8"/>
            <stop offset="1" stop-color="#6600FF" stop-opacity="0"/>
        </radialGradient>
    </defs>
</svg>
