<svg width="277" height="277" viewBox="0 0 277 277" fill="none" xmlns="http://www.w3.org/2000/svg">
<path d="M199.094 209.193C201.484 209.193 203.422 207.255 203.422 204.865C203.422 202.474 201.484 200.536 199.094 200.536C196.703 200.536 194.766 202.474 194.766 204.865C194.766 207.255 196.703 209.193 199.094 209.193Z" fill="black" fill-opacity="0.2"/>
<path d="M181.781 226.505C184.172 226.505 186.109 224.567 186.109 222.177C186.109 219.787 184.172 217.849 181.781 217.849C179.391 217.849 177.453 219.787 177.453 222.177C177.453 224.567 179.391 226.505 181.781 226.505Z" fill="black" fill-opacity="0.2"/>
<path d="M147.156 209.193C149.547 209.193 151.484 207.255 151.484 204.865C151.484 202.474 149.547 200.536 147.156 200.536C144.766 200.536 142.828 202.474 142.828 204.865C142.828 207.255 144.766 209.193 147.156 209.193Z" fill="black" fill-opacity="0.2"/>
<path d="M129.844 226.505C132.234 226.505 134.172 224.567 134.172 222.177C134.172 219.787 132.234 217.849 129.844 217.849C127.453 217.849 125.516 219.787 125.516 222.177C125.516 224.567 127.453 226.505 129.844 226.505Z" fill="black" fill-opacity="0.2"/>
<path d="M95.2188 209.193C97.6091 209.193 99.5469 207.255 99.5469 204.865C99.5469 202.474 97.6091 200.536 95.2188 200.536C92.8284 200.536 90.8906 202.474 90.8906 204.865C90.8906 207.255 92.8284 209.193 95.2188 209.193Z" fill="black" fill-opacity="0.2"/>
<path d="M77.9062 226.505C80.2966 226.505 82.2344 224.567 82.2344 222.177C82.2344 219.787 80.2966 217.849 77.9062 217.849C75.5159 217.849 73.5781 219.787 73.5781 222.177C73.5781 224.567 75.5159 226.505 77.9062 226.505Z" fill="black" fill-opacity="0.2"/>
<path d="M181.781 174.568C184.172 174.568 186.109 172.63 186.109 170.24C186.109 167.849 184.172 165.911 181.781 165.911C179.391 165.911 177.453 167.849 177.453 170.24C177.453 172.63 179.391 174.568 181.781 174.568Z" fill="black" fill-opacity="0.2"/>
<path d="M199.094 174.568C201.484 174.568 203.422 172.63 203.422 170.24C203.422 167.849 201.484 165.911 199.094 165.911C196.703 165.911 194.766 167.849 194.766 170.24C194.766 172.63 196.703 174.568 199.094 174.568Z" fill="black" fill-opacity="0.2"/>
<path d="M95.2188 174.568C97.6091 174.568 99.5469 172.63 99.5469 170.24C99.5469 167.849 97.6091 165.911 95.2188 165.911C92.8284 165.911 90.8906 167.849 90.8906 170.24C90.8906 172.63 92.8284 174.568 95.2188 174.568Z" fill="black" fill-opacity="0.2"/>
<path d="M112.531 174.568C114.922 174.568 116.859 172.63 116.859 170.24C116.859 167.849 114.922 165.911 112.531 165.911C110.141 165.911 108.203 167.849 108.203 170.24C108.203 172.63 110.141 174.568 112.531 174.568Z" fill="black" fill-opacity="0.2"/>
<path d="M129.844 174.568C132.234 174.568 134.172 172.63 134.172 170.24C134.172 167.849 132.234 165.911 129.844 165.911C127.453 165.911 125.516 167.849 125.516 170.24C125.516 172.63 127.453 174.568 129.844 174.568Z" fill="black" fill-opacity="0.2"/>
<path d="M147.156 174.568C149.547 174.568 151.484 172.63 151.484 170.24C151.484 167.849 149.547 165.911 147.156 165.911C144.766 165.911 142.828 167.849 142.828 170.24C142.828 172.63 144.766 174.568 147.156 174.568Z" fill="black" fill-opacity="0.2"/>
<path d="M164.469 174.568C166.859 174.568 168.797 172.63 168.797 170.24C168.797 167.849 166.859 165.911 164.469 165.911C162.078 165.911 160.141 167.849 160.141 170.24C160.141 172.63 162.078 174.568 164.469 174.568Z" fill="black" fill-opacity="0.2"/>
<path d="M199.094 88.0052C201.484 88.0052 203.422 86.0675 203.422 83.6771C203.422 81.2868 201.484 79.349 199.094 79.349C196.703 79.349 194.766 81.2868 194.766 83.6771C194.766 86.0675 196.703 88.0052 199.094 88.0052Z" fill="black" fill-opacity="0.2"/>
<path d="M216.406 105.318C218.797 105.318 220.734 103.38 220.734 100.99C220.734 98.5993 218.797 96.6615 216.406 96.6615C214.016 96.6615 212.078 98.5993 212.078 100.99C212.078 103.38 214.016 105.318 216.406 105.318Z" fill="black" fill-opacity="0.2"/>
<path d="M164.469 88.0052C166.859 88.0052 168.797 86.0675 168.797 83.6771C168.797 81.2868 166.859 79.349 164.469 79.349C162.078 79.349 160.141 81.2868 160.141 83.6771C160.141 86.0675 162.078 88.0052 164.469 88.0052Z" fill="black" fill-opacity="0.2"/>
<path d="M181.781 88.0052C184.172 88.0052 186.109 86.0675 186.109 83.6771C186.109 81.2868 184.172 79.349 181.781 79.349C179.391 79.349 177.453 81.2868 177.453 83.6771C177.453 86.0675 179.391 88.0052 181.781 88.0052Z" fill="black" fill-opacity="0.2"/>
<path d="M95.2188 105.318C97.6091 105.318 99.5469 103.38 99.5469 100.99C99.5469 98.5993 97.6091 96.6615 95.2188 96.6615C92.8284 96.6615 90.8906 98.5993 90.8906 100.99C90.8906 103.38 92.8284 105.318 95.2188 105.318Z" fill="black" fill-opacity="0.2"/>
<path d="M112.531 105.318C114.922 105.318 116.859 103.38 116.859 100.99C116.859 98.5993 114.922 96.6615 112.531 96.6615C110.141 96.6615 108.203 98.5993 108.203 100.99C108.203 103.38 110.141 105.318 112.531 105.318Z" fill="black" fill-opacity="0.2"/>
<path d="M128.401 121.188C130.791 121.188 132.729 119.25 132.729 116.859C132.729 114.469 130.791 112.531 128.401 112.531C126.011 112.531 124.073 114.469 124.073 116.859C124.073 119.25 126.011 121.188 128.401 121.188Z" fill="black" fill-opacity="0.2"/>
<path d="M147.156 105.318C149.547 105.318 151.484 103.38 151.484 100.99C151.484 98.5993 149.547 96.6615 147.156 96.6615C144.766 96.6615 142.828 98.5993 142.828 100.99C142.828 103.38 144.766 105.318 147.156 105.318Z" fill="black" fill-opacity="0.2"/>
<path d="M77.9062 122.63C80.2966 122.63 82.2344 120.692 82.2344 118.302C82.2344 115.912 80.2966 113.974 77.9062 113.974C75.5159 113.974 73.5781 115.912 73.5781 118.302C73.5781 120.692 75.5159 122.63 77.9062 122.63Z" fill="black" fill-opacity="0.2"/>
<path d="M216.406 174.568C218.797 174.568 220.734 172.63 220.734 170.24C220.734 167.849 218.797 165.911 216.406 165.911C214.016 165.911 212.078 167.849 212.078 170.24C212.078 172.63 214.016 174.568 216.406 174.568Z" fill="black" fill-opacity="0.2"/>
<path d="M233.719 139.943C236.109 139.943 238.047 138.005 238.047 135.615C238.047 133.224 236.109 131.286 233.719 131.286C231.328 131.286 229.391 133.224 229.391 135.615C229.391 138.005 231.328 139.943 233.719 139.943Z" fill="black" fill-opacity="0.2"/>
<path d="M233.719 157.255C236.109 157.255 238.047 155.317 238.047 152.927C238.047 150.537 236.109 148.599 233.719 148.599C231.328 148.599 229.391 150.537 229.391 152.927C229.391 155.317 231.328 157.255 233.719 157.255Z" fill="black" fill-opacity="0.2"/>
<path d="M233.719 122.63C236.109 122.63 238.047 120.692 238.047 118.302C238.047 115.912 236.109 113.974 233.719 113.974C231.328 113.974 229.391 115.912 229.391 118.302C229.391 120.692 231.328 122.63 233.719 122.63Z" fill="black" fill-opacity="0.2"/>
<path d="M60.5938 139.943C62.9841 139.943 64.9219 138.005 64.9219 135.615C64.9219 133.224 62.9841 131.286 60.5938 131.286C58.2034 131.286 56.2656 133.224 56.2656 135.615C56.2656 138.005 58.2034 139.943 60.5938 139.943Z" fill="black" fill-opacity="0.2"/>
<path d="M60.5938 157.255C62.9841 157.255 64.9219 155.317 64.9219 152.927C64.9219 150.537 62.9841 148.599 60.5938 148.599C58.2034 148.599 56.2656 150.537 56.2656 152.927C56.2656 155.317 58.2034 157.255 60.5938 157.255Z" fill="black" fill-opacity="0.2"/>
<path d="M77.9062 174.568C80.2966 174.568 82.2344 172.63 82.2344 170.24C82.2344 167.849 80.2966 165.911 77.9062 165.911C75.5159 165.911 73.5781 167.849 73.5781 170.24C73.5781 172.63 75.5159 174.568 77.9062 174.568Z" fill="black" fill-opacity="0.2"/>
<path d="M59.1511 88.0052C68.7125 88.0052 76.4636 80.2542 76.4636 70.6927C76.4636 61.1313 68.7125 53.3802 59.1511 53.3802C49.5896 53.3802 41.8386 61.1313 41.8386 70.6927C41.8386 80.2542 49.5896 88.0052 59.1511 88.0052Z" stroke="black" stroke-opacity="0.2" stroke-width="0.5" stroke-linecap="round" stroke-linejoin="round"/>
</svg>
