<svg width="25" height="24" viewBox="0 0 25 24" fill="none" xmlns="http://www.w3.org/2000/svg">
<path d="M16 9C16 10.7949 14.5449 12.25 12.75 12.25V13.75C15.3734 13.75 17.5 11.6234 17.5 9H16ZM12.75 12.25C10.9551 12.25 9.5 10.7949 9.5 9H8C8 11.6234 10.1266 13.75 12.75 13.75V12.25ZM9.5 9C9.5 7.20507 10.9551 5.75 12.75 5.75V4.25C10.1266 4.25 8 6.37665 8 9H9.5ZM12.75 5.75C14.5449 5.75 16 7.20507 16 9H17.5C17.5 6.37665 15.3734 4.25 12.75 4.25V5.75ZM9.75 16.75H15.75V15.25H9.75V16.75ZM3.5 12C3.5 6.89137 7.64137 2.75 12.75 2.75V1.25C6.81294 1.25 2 6.06294 2 12H3.5ZM12.75 2.75C17.8586 2.75 22 6.89137 22 12H23.5C23.5 6.06294 18.6871 1.25 12.75 1.25V2.75ZM22 12C22 14.6233 20.909 16.9905 19.1539 18.6748L20.1925 19.7571C22.2301 17.8016 23.5 15.0485 23.5 12H22ZM19.1539 18.6748C17.4912 20.2705 15.2358 21.25 12.75 21.25V22.75C15.6382 22.75 18.2617 21.61 20.1925 19.7571L19.1539 18.6748ZM15.75 16.75C17.326 16.75 18.6415 17.8726 18.9376 19.3621L20.4088 19.0697C19.976 16.8918 18.0555 15.25 15.75 15.25V16.75ZM12.75 21.25C10.2642 21.25 8.00884 20.2705 6.34612 18.6748L5.30751 19.7571C7.23833 21.61 9.86182 22.75 12.75 22.75V21.25ZM6.34612 18.6748C4.59103 16.9905 3.5 14.6233 3.5 12H2C2 15.0485 3.26989 17.8016 5.30751 19.7571L6.34612 18.6748ZM9.75 15.25C7.44445 15.25 5.52403 16.8918 5.0912 19.0697L6.56243 19.3621C6.85846 17.8726 8.17396 16.75 9.75 16.75V15.25Z" fill="#5E5F60"/>
</svg>
