<svg width="15" height="15" viewBox="0 0 15 15" fill="none" xmlns="http://www.w3.org/2000/svg">
<path d="M7.84872 1.86376C7.62131 1.78679 7.37488 1.78679 7.14747 1.86376L2.91247 3.29813C2.77453 3.34294 2.6527 3.4271 2.56198 3.54026C2.47125 3.65341 2.41559 3.79062 2.40185 3.93501C2.19122 6.57626 2.55685 8.52938 3.42497 10.005C4.26497 11.4331 5.60872 12.4713 7.4981 13.245C9.38935 12.4713 10.7343 11.4331 11.5743 10.005C12.4431 8.53001 12.8087 6.57626 12.5981 3.93501C12.5843 3.79062 12.5287 3.65341 12.438 3.54026C12.3472 3.4271 12.2254 3.34294 12.0875 3.29813L7.84872 1.86376ZM6.84685 0.976257C7.26917 0.83308 7.72688 0.83286 8.14934 0.975632L12.3881 2.41001C12.6994 2.5137 12.9737 2.70624 13.1769 2.9639C13.3801 3.22156 13.5035 3.53306 13.5318 3.86001C13.7525 6.61626 13.3818 8.78251 12.3825 10.4806C11.38 12.1838 9.78185 13.3544 7.66997 14.1863C7.55952 14.2298 7.43667 14.2298 7.32622 14.1863C5.21622 13.3544 3.61872 12.1838 2.61685 10.4806C1.6181 8.78251 1.24747 6.61563 1.46747 3.86001C1.4958 3.53306 1.61919 3.22156 1.82242 2.9639C2.02566 2.70624 2.29987 2.5137 2.61122 2.41001L6.84685 0.976257Z" fill="#1FAA59"/>
<path opacity="0.5" d="M7.5 12.5C10.645 11.225 12.1288 8.98873 11.8394 4.77061C11.8069 4.29123 11.4794 3.88561 11.025 3.72748L8.0125 2.67873C7.84772 2.62136 7.67449 2.592 7.5 2.59186V12.5Z" fill="#1FAA59"/>
</svg>
