<svg width="23" height="23" viewBox="0 0 23 23" fill="none" xmlns="http://www.w3.org/2000/svg">
<g clip-path="url(#clip0_26_524)">
<path d="M20.6937 12.6733C20.4587 12.4922 20.1892 12.3608 19.9018 12.2871C19.6143 12.2134 19.3149 12.199 19.0217 12.2448C20.709 10.5413 21.5625 8.84777 21.5625 7.18746C21.5625 4.8093 19.6497 2.87496 17.2985 2.87496C16.6746 2.87104 16.0575 3.00373 15.4904 3.26371C14.9232 3.52368 14.4199 3.90464 14.0156 4.37985C13.6114 3.90464 13.108 3.52368 12.5409 3.26371C11.9738 3.00373 11.3566 2.87104 10.7327 2.87496C8.38152 2.87496 6.46875 4.8093 6.46875 7.18746C6.46875 8.17574 6.75984 9.13617 7.37258 10.1523C6.87074 10.2794 6.41277 10.5403 6.04738 10.907L4.01512 12.9375H1.4375C1.05625 12.9375 0.690618 13.0889 0.421034 13.3585C0.15145 13.6281 0 13.9937 0 14.375L0 17.9687C0 18.35 0.15145 18.7156 0.421034 18.9852C0.690618 19.2548 1.05625 19.4062 1.4375 19.4062H10.7812C10.84 19.4062 10.8985 19.3989 10.9555 19.3846L16.7055 17.9471C16.7422 17.9384 16.778 17.9264 16.8125 17.9112L20.3047 16.4252L20.3442 16.4072C20.6798 16.2395 20.9673 15.9891 21.1794 15.6796C21.3915 15.3702 21.5213 15.0118 21.5566 14.6382C21.592 14.2647 21.5316 13.8883 21.3813 13.5446C21.2309 13.2008 20.9955 12.901 20.6973 12.6733H20.6937ZM19.7144 15.1126L16.3004 16.5663L10.6914 17.9687H5.03125V13.9536L7.06441 11.9213C7.19741 11.7873 7.35574 11.681 7.53018 11.6086C7.70462 11.5363 7.8917 11.4994 8.08055 11.5H12.5781C12.8641 11.5 13.1383 11.6136 13.3405 11.8157C13.5427 12.0179 13.6562 12.2922 13.6562 12.5781C13.6562 12.864 13.5427 13.1382 13.3405 13.3404C13.1383 13.5426 12.8641 13.6562 12.5781 13.6562H10.0625C9.87188 13.6562 9.68906 13.7319 9.55427 13.8667C9.41948 14.0015 9.34375 14.1843 9.34375 14.375C9.34375 14.5656 9.41948 14.7484 9.55427 14.8832C9.68906 15.018 9.87188 15.0937 10.0625 15.0937H12.9375C12.9916 15.0936 13.0455 15.0875 13.0983 15.0757L19.1179 13.6913L19.1457 13.6841C19.3295 13.633 19.5256 13.6518 19.6964 13.7367C19.8671 13.8216 20.0005 13.9666 20.0707 14.1439C20.141 14.3212 20.1432 14.5183 20.0769 14.6971C20.0106 14.8759 19.8805 15.0239 19.7117 15.1126H19.7144Z" fill="#1E1E1E"/>
</g>
<defs>
<clipPath id="clip0_26_524">
<rect width="23" height="23" fill="white"/>
</clipPath>
</defs>
</svg>
