<svg width="106" height="11" viewBox="0 0 106 11" fill="none" xmlns="http://www.w3.org/2000/svg">
<path d="M0.56741 0.696V3.919H3.64741V4.337H0.56741V7.582H3.97741V8H0.0724102V0.278H3.97741V0.696H0.56741ZM7.49973 7.461L9.69973 2.027H10.2277L7.75273 8H7.23573L4.76073 2.027H5.29973L7.49973 7.461ZM16.6985 4.612C16.6985 4.876 16.6911 5.074 16.6765 5.206H11.5175C11.5321 5.74133 11.6495 6.19233 11.8695 6.559C12.0895 6.92567 12.3791 7.20067 12.7385 7.384C13.0978 7.56733 13.4901 7.659 13.9155 7.659C14.5021 7.659 14.9935 7.516 15.3895 7.23C15.7855 6.93667 16.0348 6.54067 16.1375 6.042H16.6545C16.5371 6.65067 16.2365 7.14567 15.7525 7.527C15.2685 7.901 14.6561 8.088 13.9155 8.088C13.3581 8.088 12.8595 7.96333 12.4195 7.714C11.9795 7.46467 11.6348 7.109 11.3855 6.647C11.1361 6.17767 11.0115 5.63133 11.0115 5.008C11.0115 4.38467 11.1325 3.842 11.3745 3.38C11.6238 2.918 11.9685 2.566 12.4085 2.324C12.8485 2.07467 13.3508 1.95 13.9155 1.95C14.4875 1.95 14.9825 2.07467 15.4005 2.324C15.8258 2.566 16.1485 2.89233 16.3685 3.303C16.5885 3.70633 16.6985 4.14267 16.6985 4.612ZM16.2035 4.799C16.2255 4.271 16.1301 3.82367 15.9175 3.457C15.7121 3.09033 15.4298 2.819 15.0705 2.643C14.7111 2.45967 14.3225 2.368 13.9045 2.368C13.4865 2.368 13.0978 2.45967 12.7385 2.643C12.3865 2.819 12.0968 3.09033 11.8695 3.457C11.6495 3.82367 11.5321 4.271 11.5175 4.799H16.2035ZM18.6895 3.259C18.8361 2.819 19.0965 2.48533 19.4705 2.258C19.8445 2.02333 20.3211 1.906 20.9005 1.906V2.423H20.7355C20.1488 2.423 19.6611 2.59167 19.2725 2.929C18.8838 3.259 18.6895 3.80167 18.6895 4.557V8H18.1945V2.027H18.6895V3.259ZM26.7042 2.027L23.2282 10.805H22.7222L23.8332 8L21.3252 2.027H21.8642L24.1082 7.45L26.1982 2.027H26.7042ZM35.0822 8L33.1022 4.711H33.0582H31.4082V8H30.9132V0.278H33.0362C33.8942 0.278 34.5359 0.479666 34.9612 0.883C35.3939 1.28633 35.6102 1.82167 35.6102 2.489C35.6102 3.083 35.4416 3.57433 35.1042 3.963C34.7742 4.34433 34.2902 4.579 33.6522 4.667L35.6762 8H35.0822ZM31.4082 4.293H33.0582C33.7402 4.293 34.2499 4.128 34.5872 3.798C34.9246 3.468 35.0932 3.03167 35.0932 2.489C35.0932 1.30833 34.4076 0.717999 33.0362 0.717999H31.4082V4.293ZM42.1282 2.027V8H41.6332V6.702C41.4646 7.15667 41.1822 7.505 40.7862 7.747C40.3976 7.98167 39.9502 8.099 39.4442 8.099C38.7329 8.099 38.1499 7.88267 37.6952 7.45C37.2479 7.01 37.0242 6.361 37.0242 5.503V2.027H37.5082V5.47C37.5082 6.18133 37.6879 6.72767 38.0472 7.109C38.4066 7.483 38.8942 7.67 39.5102 7.67C40.1556 7.67 40.6689 7.46467 41.0502 7.054C41.4389 6.64333 41.6332 6.03467 41.6332 5.228V2.027H42.1282ZM44.4278 3.6C44.5964 3.116 44.9008 2.72 45.3408 2.412C45.7881 2.104 46.3271 1.95 46.9578 1.95C47.5151 1.95 48.0101 2.07467 48.4428 2.324C48.8828 2.57333 49.2238 2.929 49.4658 3.391C49.7151 3.853 49.8398 4.392 49.8398 5.008C49.8398 5.624 49.7151 6.16667 49.4658 6.636C49.2238 7.098 48.8828 7.45733 48.4428 7.714C48.0101 7.96333 47.5151 8.088 46.9578 8.088C46.3344 8.088 45.7991 7.934 45.3518 7.626C44.9118 7.31067 44.6038 6.91467 44.4278 6.438V10.816H43.9328V2.027H44.4278V3.6ZM49.3338 5.008C49.3338 4.46533 49.2311 3.996 49.0258 3.6C48.8204 3.204 48.5308 2.90333 48.1568 2.698C47.7901 2.48533 47.3648 2.379 46.8808 2.379C46.4188 2.379 46.0008 2.489 45.6268 2.709C45.2528 2.92167 44.9594 3.22967 44.7468 3.633C44.5341 4.029 44.4278 4.48733 44.4278 5.008C44.4278 5.536 44.5341 6.00167 44.7468 6.405C44.9594 6.801 45.2528 7.109 45.6268 7.329C46.0008 7.54167 46.4188 7.648 46.8808 7.648C47.3648 7.648 47.7901 7.54167 48.1568 7.329C48.5308 7.11633 48.8204 6.812 49.0258 6.416C49.2311 6.02 49.3338 5.55067 49.3338 5.008ZM56.7131 4.612C56.7131 4.876 56.7058 5.074 56.6911 5.206H51.5321C51.5468 5.74133 51.6641 6.19233 51.8841 6.559C52.1041 6.92567 52.3938 7.20067 52.7531 7.384C53.1125 7.56733 53.5048 7.659 53.9301 7.659C54.5168 7.659 55.0081 7.516 55.4041 7.23C55.8001 6.93667 56.0495 6.54067 56.1521 6.042H56.6691C56.5518 6.65067 56.2511 7.14567 55.7671 7.527C55.2831 7.901 54.6708 8.088 53.9301 8.088C53.3728 8.088 52.8741 7.96333 52.4341 7.714C51.9941 7.46467 51.6495 7.109 51.4001 6.647C51.1508 6.17767 51.0261 5.63133 51.0261 5.008C51.0261 4.38467 51.1471 3.842 51.3891 3.38C51.6385 2.918 51.9831 2.566 52.4231 2.324C52.8631 2.07467 53.3655 1.95 53.9301 1.95C54.5021 1.95 54.9971 2.07467 55.4151 2.324C55.8405 2.566 56.1631 2.89233 56.3831 3.303C56.6031 3.70633 56.7131 4.14267 56.7131 4.612ZM56.2181 4.799C56.2401 4.271 56.1448 3.82367 55.9321 3.457C55.7268 3.09033 55.4445 2.819 55.0851 2.643C54.7258 2.45967 54.3371 2.368 53.9191 2.368C53.5011 2.368 53.1125 2.45967 52.7531 2.643C52.4011 2.819 52.1115 3.09033 51.8841 3.457C51.6641 3.82367 51.5468 4.271 51.5321 4.799H56.2181ZM63.5881 4.612C63.5881 4.876 63.5808 5.074 63.5661 5.206H58.4071C58.4218 5.74133 58.5391 6.19233 58.7591 6.559C58.9791 6.92567 59.2688 7.20067 59.6281 7.384C59.9875 7.56733 60.3798 7.659 60.8051 7.659C61.3918 7.659 61.8831 7.516 62.2791 7.23C62.6751 6.93667 62.9245 6.54067 63.0271 6.042H63.5441C63.4268 6.65067 63.1261 7.14567 62.6421 7.527C62.1581 7.901 61.5458 8.088 60.8051 8.088C60.2478 8.088 59.7491 7.96333 59.3091 7.714C58.8691 7.46467 58.5245 7.109 58.2751 6.647C58.0258 6.17767 57.9011 5.63133 57.9011 5.008C57.9011 4.38467 58.0221 3.842 58.2641 3.38C58.5135 2.918 58.8581 2.566 59.2981 2.324C59.7381 2.07467 60.2405 1.95 60.8051 1.95C61.3771 1.95 61.8721 2.07467 62.2901 2.324C62.7155 2.566 63.0381 2.89233 63.2581 3.303C63.4781 3.70633 63.5881 4.14267 63.5881 4.612ZM63.0931 4.799C63.1151 4.271 63.0198 3.82367 62.8071 3.457C62.6018 3.09033 62.3195 2.819 61.9601 2.643C61.6008 2.45967 61.2121 2.368 60.7941 2.368C60.3761 2.368 59.9875 2.45967 59.6281 2.643C59.2761 2.819 58.9865 3.09033 58.7591 3.457C58.5391 3.82367 58.4218 4.271 58.4071 4.799H63.0931ZM67.8806 4.15C67.8806 3.38733 68.0383 2.709 68.3536 2.115C68.6763 1.51367 69.1163 1.04433 69.6736 0.706999C70.2383 0.369666 70.869 0.200999 71.5656 0.200999C72.4456 0.200999 73.1863 0.406333 73.7876 0.816999C74.389 1.22767 74.829 1.80333 75.1076 2.544H74.5356C74.3156 1.95733 73.949 1.49533 73.4356 1.158C72.9296 0.813333 72.3063 0.641 71.5656 0.641C70.9716 0.641 70.4326 0.784 69.9486 1.07C69.4646 1.34867 69.0833 1.75567 68.8046 2.291C68.526 2.819 68.3866 3.43867 68.3866 4.15C68.3866 4.854 68.526 5.47 68.8046 5.998C69.0833 6.51867 69.4646 6.922 69.9486 7.208C70.4326 7.494 70.9716 7.637 71.5656 7.637C72.3063 7.637 72.9296 7.46833 73.4356 7.131C73.949 6.78633 74.3156 6.32067 74.5356 5.734H75.1076C74.829 6.47467 74.389 7.05033 73.7876 7.461C73.1863 7.87167 72.4456 8.077 71.5656 8.077C70.869 8.077 70.2383 7.912 69.6736 7.582C69.1163 7.24467 68.6763 6.779 68.3536 6.185C68.0383 5.58367 67.8806 4.90533 67.8806 4.15ZM79.2825 8.088C78.7251 8.088 78.2228 7.96333 77.7755 7.714C77.3281 7.46467 76.9761 7.109 76.7195 6.647C76.4701 6.17767 76.3455 5.63133 76.3455 5.008C76.3455 4.392 76.4738 3.853 76.7305 3.391C76.9871 2.92167 77.3391 2.566 77.7865 2.324C78.2411 2.07467 78.7471 1.95 79.3045 1.95C79.8618 1.95 80.3641 2.07467 80.8115 2.324C81.2588 2.566 81.6071 2.918 81.8565 3.38C82.1131 3.842 82.2415 4.38467 82.2415 5.008C82.2415 5.63133 82.1131 6.17767 81.8565 6.647C81.5998 7.109 81.2441 7.46467 80.7895 7.714C80.3421 7.96333 79.8398 8.088 79.2825 8.088ZM79.2825 7.648C79.7151 7.648 80.1185 7.55267 80.4925 7.362C80.8738 7.164 81.1781 6.867 81.4055 6.471C81.6328 6.075 81.7465 5.58733 81.7465 5.008C81.7465 4.436 81.6328 3.952 81.4055 3.556C81.1781 3.16 80.8775 2.86667 80.5035 2.676C80.1295 2.478 79.7261 2.379 79.2935 2.379C78.8608 2.379 78.4575 2.478 78.0835 2.676C77.7168 2.86667 77.4198 3.16 77.1925 3.556C76.9651 3.952 76.8515 4.436 76.8515 5.008C76.8515 5.58733 76.9615 6.075 77.1815 6.471C77.4088 6.867 77.7058 7.164 78.0725 7.362C78.4465 7.55267 78.8498 7.648 79.2825 7.648ZM88.7923 2.027V8H88.2973V6.702C88.1286 7.15667 87.8463 7.505 87.4503 7.747C87.0616 7.98167 86.6143 8.099 86.1083 8.099C85.397 8.099 84.814 7.88267 84.3593 7.45C83.912 7.01 83.6883 6.361 83.6883 5.503V2.027H84.1723V5.47C84.1723 6.18133 84.352 6.72767 84.7113 7.109C85.0706 7.483 85.5583 7.67 86.1743 7.67C86.8196 7.67 87.333 7.46467 87.7143 7.054C88.103 6.64333 88.2973 6.03467 88.2973 5.228V2.027H88.7923ZM93.2918 1.906C94.0032 1.906 94.5825 2.126 95.0298 2.566C95.4772 2.99867 95.7008 3.644 95.7008 4.502V8H95.2168V4.535C95.2168 3.82367 95.0372 3.281 94.6778 2.907C94.3185 2.52567 93.8308 2.335 93.2148 2.335C92.5695 2.335 92.0525 2.54033 91.6638 2.951C91.2825 3.36167 91.0918 3.97033 91.0918 4.777V8H90.5968V2.027H91.0918V3.292C91.2605 2.84467 91.5392 2.50367 91.9278 2.269C92.3238 2.027 92.7785 1.906 93.2918 1.906ZM98.1873 2.456V6.405C98.1873 6.845 98.268 7.14933 98.4293 7.318C98.5907 7.47933 98.8767 7.56 99.2873 7.56H99.9583V8H99.2103C98.6897 8 98.3047 7.879 98.0553 7.637C97.8133 7.38767 97.6923 6.977 97.6923 6.405V2.456H96.7903V2.027H97.6923V0.508999H98.1873V2.027H99.9583V2.456H98.1873ZM103.255 8.088C102.587 8.088 102.041 7.94133 101.616 7.648C101.198 7.35467 100.963 6.93667 100.912 6.394H101.418C101.454 6.78267 101.63 7.09067 101.946 7.318C102.268 7.54533 102.705 7.659 103.255 7.659C103.709 7.659 104.069 7.54533 104.333 7.318C104.604 7.08333 104.74 6.79733 104.74 6.46C104.74 6.22533 104.666 6.03467 104.52 5.888C104.38 5.734 104.204 5.61667 103.992 5.536C103.779 5.45533 103.489 5.36733 103.123 5.272C102.683 5.15467 102.327 5.041 102.056 4.931C101.784 4.81367 101.553 4.64133 101.363 4.414C101.172 4.18667 101.077 3.88233 101.077 3.501C101.077 3.22233 101.161 2.96567 101.33 2.731C101.498 2.489 101.733 2.29833 102.034 2.159C102.334 2.01967 102.675 1.95 103.057 1.95C103.68 1.95 104.182 2.10767 104.564 2.423C104.952 2.731 105.161 3.16 105.191 3.71H104.696C104.674 3.314 104.52 2.99133 104.234 2.742C103.948 2.49267 103.552 2.368 103.046 2.368C102.62 2.368 102.268 2.478 101.99 2.698C101.711 2.918 101.572 3.18567 101.572 3.501C101.572 3.77967 101.649 4.007 101.803 4.183C101.964 4.35167 102.158 4.48367 102.386 4.579C102.62 4.667 102.928 4.76233 103.31 4.865C103.728 4.975 104.061 5.085 104.311 5.195C104.567 5.29767 104.784 5.45167 104.96 5.657C105.136 5.855 105.224 6.12267 105.224 6.46C105.224 6.768 105.139 7.04667 104.971 7.296C104.802 7.54533 104.567 7.73967 104.267 7.879C103.966 8.01833 103.629 8.088 103.255 8.088Z" fill="#1FAA59"/>
</svg>
