<svg width="25" height="24" viewBox="0 0 25 24" fill="none" xmlns="http://www.w3.org/2000/svg">
<path fill-rule="evenodd" clip-rule="evenodd" d="M22.1667 7.37602C22.7687 4.23704 20.0129 1.48122 16.8739 2.08323L7.86161 3.81165C5.90249 4.18738 4.33571 5.67034 3.83793 7.59727C2.8441 11.4445 6.41202 14.9606 10.243 13.834C10.3488 13.8029 10.4471 13.9012 10.416 14.007C9.28938 17.838 12.8055 21.4059 16.6527 20.4121C18.5797 19.9143 20.0626 18.3475 20.4383 16.3884L22.1667 7.37602ZM17.1522 3.53437C19.2656 3.12907 21.1209 4.98441 20.7156 7.09772L18.9872 16.1101C18.7199 17.5038 17.6617 18.6253 16.2832 18.9814C13.5278 19.6932 11.0362 17.1351 11.8335 14.4238C12.1946 13.1961 11.0539 12.0554 9.82612 12.4164C7.11484 13.2138 4.55679 10.7222 5.26856 7.96684C5.62466 6.58832 6.74617 5.53009 8.13991 5.26279L17.1522 3.53437Z" fill="#5E5F60"/>
<path d="M4.90428 16.2113C5.1928 15.9228 5.1928 15.455 4.90428 15.1665C4.61576 14.878 4.14799 14.878 3.85947 15.1665L2.46639 16.5596C2.17787 16.8481 2.17787 17.3159 2.46639 17.6044C2.7549 17.8929 3.22268 17.8929 3.5112 17.6044L4.90428 16.2113Z" fill="#5E5F60"/>
<path d="M8.38698 16.9078C8.6755 16.6193 8.6755 16.1515 8.38698 15.863C8.09847 15.5745 7.63069 15.5745 7.34217 15.863L5.94909 17.2561C5.66057 17.5446 5.66057 18.0124 5.94909 18.3009C6.23761 18.5894 6.70538 18.5894 6.9939 18.3009L8.38698 16.9078Z" fill="#5E5F60"/>
<path d="M9.08352 20.3905C9.37204 20.102 9.37204 19.6342 9.08352 19.3457C8.79501 19.0572 8.32723 19.0572 8.03871 19.3457L6.64563 20.7388C6.35711 21.0273 6.35711 21.4951 6.64563 21.7836C6.93415 22.0721 7.40193 22.0721 7.69044 21.7836L9.08352 20.3905Z" fill="#5E5F60"/>
</svg>
