<svg width="35" height="35" viewBox="0 0 35 35" fill="none" xmlns="http://www.w3.org/2000/svg">
<path d="M21.875 20.4167C17.9813 20.4167 10.2083 22.3563 10.2083 26.25V29.1667H33.5417V26.25C33.5417 22.3563 25.7688 20.4167 21.875 20.4167ZM21.875 17.5C23.4221 17.5 24.9058 16.8854 25.9998 15.7915C27.0938 14.6975 27.7083 13.2138 27.7083 11.6667C27.7083 10.1196 27.0938 8.63585 25.9998 7.54189C24.9058 6.44792 23.4221 5.83334 21.875 5.83334C20.3279 5.83334 18.8442 6.44792 17.7502 7.54189C16.6563 8.63585 16.0417 10.1196 16.0417 11.6667C16.0417 13.2138 16.6563 14.6975 17.7502 15.7915C18.8442 16.8854 20.3279 17.5 21.875 17.5ZM7.29168 19.3667L10.8646 21.5396L9.91668 17.4417L13.125 14.7L8.91043 14.3354L7.29168 10.4854L5.64376 14.3354L1.45834 14.7L4.63751 17.4417L3.64584 21.5396L7.29168 19.3667Z" fill="#1FAA59"/>
</svg>
