<svg width="22" height="19" viewBox="0 0 22 19" fill="none" xmlns="http://www.w3.org/2000/svg">
<path d="M0 2.67188C0.792523 2.09222 1.75802 1.77953 2.75 1.78125H19.25C20.2816 1.78125 21.2337 2.11256 22 2.67188C22 2.321 21.9289 1.97356 21.7907 1.64939C21.6525 1.32523 21.4499 1.03068 21.1945 0.782574C20.9392 0.534467 20.636 0.337659 20.3024 0.203384C19.9687 0.0691101 19.6111 0 19.25 0H2.75C2.02065 0 1.32118 0.2815 0.805456 0.782574C0.289731 1.28365 0 1.96325 0 2.67188ZM0 6.23438C0.792523 5.65472 1.75802 5.34203 2.75 5.34375H19.25C20.2816 5.34375 21.2337 5.67506 22 6.23438C22 5.8835 21.9289 5.53606 21.7907 5.21189C21.6525 4.88773 21.4499 4.59318 21.1945 4.34507C20.9392 4.09697 20.636 3.90016 20.3024 3.76588C19.9687 3.63161 19.6111 3.5625 19.25 3.5625H2.75C2.02065 3.5625 1.32118 3.844 0.805456 4.34507C0.289731 4.84615 0 5.52575 0 6.23438ZM7.33333 7.125C7.65749 7.125 7.96836 7.25011 8.19757 7.47281C8.42679 7.69551 8.55556 7.99756 8.55556 8.3125C8.55556 8.94239 8.8131 9.54648 9.27152 9.99188C9.72994 10.4373 10.3517 10.6875 11 10.6875C11.6483 10.6875 12.2701 10.4373 12.7285 9.99188C13.1869 9.54648 13.4444 8.94239 13.4444 8.3125C13.4444 7.99756 13.5732 7.69551 13.8024 7.47281C14.0316 7.25011 14.3425 7.125 14.6667 7.125H19.25C19.6111 7.125 19.9687 7.19411 20.3024 7.32838C20.636 7.46266 20.9392 7.65947 21.1945 7.90757C21.4499 8.15568 21.6525 8.45023 21.7907 8.77439C21.9289 9.09856 22 9.446 22 9.79688V16.3281C22 16.679 21.9289 17.0264 21.7907 17.3506C21.6525 17.6748 21.4499 17.9693 21.1945 18.2174C20.9392 18.4655 20.636 18.6623 20.3024 18.7966C19.9687 18.9309 19.6111 19 19.25 19H2.75C2.02065 19 1.32118 18.7185 0.805456 18.2174C0.289731 17.7164 0 17.0368 0 16.3281V9.79688C0 9.08825 0.289731 8.40865 0.805456 7.90757C1.32118 7.4065 2.02065 7.125 2.75 7.125H7.33333Z" fill="#1FAA59"/>
</svg>
