<svg width="29" height="27" viewBox="0 0 29 27" fill="none" xmlns="http://www.w3.org/2000/svg">
<path d="M2.937 13.2016C2.93932 11.7303 3.24862 10.2757 3.84513 8.9308C4.44164 7.58587 5.31224 6.38021 6.40125 5.39091L9.54904 8.55291V0.583328H1.58334L4.52317 3.50508C2.65686 5.24059 1.32993 7.47694 0.701067 9.94668C0.0721996 12.4164 0.168009 15.015 0.977038 17.4318C1.78607 19.8485 3.27407 21.9811 5.26311 23.5744C7.25216 25.1678 9.65805 26.1545 12.1931 26.4167V23.7339C9.63361 23.4035 7.28215 22.152 5.57854 20.2135C3.87493 18.2751 2.93587 15.7823 2.937 13.2016ZM28.7083 13.8655C28.7169 10.5722 27.5055 7.39228 25.3077 4.9395C23.1099 2.48672 20.0815 0.934847 16.8069 0.583328V3.26612C19.372 3.61164 21.7245 4.87675 23.4269 6.82631C25.1294 8.77587 26.0661 11.2773 26.063 13.8655C26.0604 15.3269 25.7506 16.7715 25.1538 18.1055C24.557 19.4394 23.6865 20.6331 22.5988 21.6091L19.3903 18.4471V26.4167H27.3857L24.4768 23.4949C25.8106 22.2704 26.8754 20.7822 27.6038 19.1246C28.3323 17.467 28.7084 15.6761 28.7083 13.8655Z" fill="#1FAA59"/>
</svg>
